<?xml version="1.0" encoding="UTF-8"?>
<svg xmlns="http://www.w3.org/2000/svg" viewBox="0 0 512 512">
  <g>
    <title>Beneficio comunidad</title>
    <path d="M256,480c-8.837,0-16-7.163-16-16V432c0-8.837,7.163-16,16-16s16,7.163,16,16v32C272,472.837,264.837,480,256,480z" fill="#ffb6b6"/>
    <path d="M256,32C132.288,32,32,132.288,32,256s100.288,224,224,224,224-100.288,224-224S379.712,32,256,32Zm0,416c-105.872,0-192-86.128-192-192S150.128,64,256,64s192,86.128,192,192S361.872,448,256,448Z" fill="#ffd166"/>
    <path d="M384,320c-35.346,0-64,28.654-64,64s28.654,64,64,64,64-28.654,64-64S419.346,320,384,320Zm0,96c-17.673,0-32-14.327-32-32s14.327-32,32-32,32,14.327,32,32S401.673,416,384,416Z" fill="#90caf9"/>
    <path d="M384,352c-17.673,0-32,14.327-32,32s14.327,32,32,32,32-14.327,32-32S401.673,352,384,352Z" fill="#b2ff59"/>
    <path d="M256,128c-44.112,0-80,35.888-80,80s35.888,80,80,80,80-35.888,80-80S300.112,128,256,128Zm0,128c-26.472,0-48-21.528-48-48s21.528-48,48-48,48,21.528,48,48S282.472,256,256,256Z" fill="#fff"/>
  </g>
</svg>
