<?xml version="1.0" encoding="UTF-8"?>
<svg xmlns="http://www.w3.org/2000/svg" viewBox="0 0 512 512">
  <g>
    <title>Emociones</title>
    <path d="M256,32C132.288,32,32,132.288,32,256s100.288,224,224,224,224-100.288,224-224S379.712,32,256,32Zm0,416c-105.872,0-192-86.128-192-192S150.128,64,256,64s192,86.128,192,192S361.872,448,256,448Z" fill="#e57373"/>
    <circle cx="160" cy="192" r="48" fill="#fff59d"/>
    <circle cx="352" cy="192" r="48" fill="#fff59d"/>
    <circle cx="256" cy="256" r="48" fill="#bcaaa4"/>
    <circle cx="192" cy="320" r="48" fill="#f48fb1"/>
    <circle cx="320" cy="320" r="48" fill="#f48fb1"/>
    <path d="M160,192c0,13.255,10.745,24,24,24s24-10.745,24-24" stroke="#333" stroke-width="8" fill="none"/>
    <path d="M352,192c0,13.255,10.745,24,24,24s24-10.745,24-24" stroke="#333" stroke-width="8" fill="none"/>
    <path d="M256,256c0,13.255,10.745,24,24,24s24-10.745,24-24" stroke="#333" stroke-width="8" fill="none"/>
    <path d="M192,320c0,13.255,10.745,24,24,24s24-10.745,24-24" stroke="#333" stroke-width="8" fill="none"/>
    <path d="M320,320c0,13.255,10.745,24,24,24s24-10.745,24-24" stroke="#333" stroke-width="8" fill="none"/>
  </g>
</svg>
